<?xml version="1.0" encoding="utf-8"?>
<!-- Generator: Adobe Illustrator 28.3.0, SVG Export Plug-In . SVG Version: 6.00 Build 0)  -->
<svg version="1.1" id="Layer_2_copy" xmlns="http://www.w3.org/2000/svg" xmlns:xlink="http://www.w3.org/1999/xlink" x="0px"
	 y="0px" viewBox="0 0 299.19 299.19" style="enable-background:new 0 0 299.19 299.19;" xml:space="preserve">
<style type="text/css">
	.st0{fill:#FFFFFF;}
</style>
<path class="st0" d="M292.6,149.85l-7.02-3.76H270.7l6.84-7.53h-3.51l-6.84,7.53h-10.26l10.58-12.54H264l-10.58,12.54h-9.74
	l13.8-17.56h-3.51l-13.8,17.56h-5.19l-26.86-20.74l4.82-34.41l3.53-3.53L238,89.99l2.48-2.48l-21.54-2.58l6.91-6.91l15.7,1.33
	l2.48-2.48l-15.7-1.33l7.28-7.28l9.48,0.45l2.48-2.48l-9.48-0.45l10.19-10.19l2.31-7.63l-7.63,2.31l-10.51,10.51l-0.48-10.16
	l-2.48,2.48l0.48,10.16l-7.26,7.26l-1.39-16.35l-2.48,2.48L220.23,73l-6.89,6.89l-2.66-22.17l-2.48,2.48l2.66,22.17l-3.67,3.67
	l-33.66,4.33l-20.92-27.74v-4.99l17.06-13.4v-3.51l-17.06,13.4v-9.77l12.04-10.16v-3.51l-12.04,10.16v-10.3l7.02-6.39v-3.51
	l-7.02,6.39V12.62l-3.76-7.02l-3.76,7.02v14.87l-7.53-6.84v3.51l7.53,6.84v10.26l-12.54-10.58v3.51l12.54,10.58v9.74l-17.56-13.8
	v3.51l17.56,13.8v5.19l-20.74,26.86l-34.41-4.82l-3.53-3.53l2.58-21.54l-2.48-2.48l-2.58,21.54l-6.91-6.91l1.33-15.7l-2.48-2.48
	l-1.33,15.7l-7.28-7.28l0.45-9.48l-2.48-2.48l-0.45,9.48L54.58,49.9l-7.63-2.31l2.31,7.63l10.51,10.51l-10.16,0.48l2.48,2.48
	l10.16-0.48l7.26,7.26l-16.35,1.39l2.48,2.48L72,77.96l6.89,6.89l-22.17,2.66l2.48,2.48l22.17-2.66L85.04,91l4.33,33.66
	l-27.74,20.92h-4.99l-13.4-17.06h-3.51l13.4,17.06h-9.77L33.2,133.54h-3.51l10.16,12.04h-10.3l-6.39-7.02h-3.51l6.39,7.02H11.62
	l-7.02,3.76l7.02,3.76h14.87l-6.84,7.53h3.51l6.84-7.53h10.26l-10.58,12.54h3.51l10.58-12.54h9.74l-13.8,17.56h3.51l13.8-17.56h5.19
	l26.86,20.74l-4.82,34.41l-3.53,3.53l-21.54-2.58l-2.48,2.48l21.54,2.58l-6.91,6.91l-15.7-1.33l-2.48,2.48l15.7,1.33l-7.28,7.28
	l-9.48-0.45l-2.48,2.48l9.48,0.45L48.9,243.61l-2.31,7.63l7.63-2.31l10.51-10.51l0.48,10.16l2.48-2.48l-0.48-10.16l7.26-7.26
	l1.39,16.35l2.48-2.48l-1.39-16.35l6.89-6.89l2.66,22.17l2.48-2.48l-2.66-22.17l3.67-3.67l33.66-4.33l20.92,27.74v4.99l-17.06,13.4
	v3.51l17.06-13.4v9.77L132.54,265v3.51l12.04-10.16v10.3l-7.02,6.39v3.51l7.02-6.39v14.41l3.76,7.02l3.76-7.02V271.7l7.53,6.84
	v-3.51l-7.53-6.84v-10.26l12.54,10.58V265l-12.54-10.58v-9.74l17.56,13.8v-3.51l-17.56-13.8v-5.19l20.74-26.86l34.41,4.82l3.53,3.53
	L208.2,239l2.48,2.48l2.58-21.54l6.91,6.91l-1.33,15.7l2.48,2.48l1.33-15.7l7.28,7.28l-0.45,9.48l2.48,2.48l0.45-9.48l10.19,10.19
	l7.63,2.31l-2.31-7.63l-10.51-10.51l10.16-0.48l-2.48-2.48l-10.16,0.48l-7.26-7.26l16.35-1.39l-2.48-2.48l-16.35,1.39l-6.89-6.89
	l22.17-2.66L238,209.2l-22.17,2.66l-3.67-3.67l-4.33-33.66l27.74-20.92h4.99l13.4,17.06h3.51l-13.4-17.06h9.77L264,165.65h3.51
	l-10.16-12.04h10.3l6.39,7.02h3.51l-6.39-7.02h14.41L292.6,149.85z M207.02,125.79l26.28,20.3h-6.78l-23.94-18.49l4.29-30.6
	l4.86-4.86L207.02,125.79z M222.89,146.08h-9.26l-19.49-15.05l3.47-24.78l6.65-6.65l-3.97,28.32l-0.09,0.64L222.89,146.08z
	 M176.14,117.09l-14.65,1.88l-8.88-11.77v-16l13.2,17.5l21.47-2.76L176.14,117.09z M139.61,145.58h-22.9l8.01-6.04l-1.31-10.17
	L139.61,145.58z M128.89,124.21l9.93,1.39l6.26-8.11v22.91L128.89,124.21z M139.41,153.11l-16.19,16.19l1.39-9.93l-8.11-6.26H139.41
	z M144.58,158.58v22.9l-6.04-8.01l-10.17,1.31L144.58,158.58z M152.11,158.78l16.19,16.19l-9.93-1.39l-6.26,8.11V158.78z
	 M157.58,153.61h22.9l-8.01,6.04l1.31,10.17L157.58,153.61z M157.78,146.08l16.19-16.19l-1.39,9.93l8.11,6.26H157.78z
	 M152.61,140.61v-22.9l6.04,8.01l10.17-1.31L152.61,140.61z M145.08,107.13l-9.03,11.69l-14.6-2.05l-11.31-11.31l21.71,3.04
	l13.23-17.13V107.13z M116.09,122.05l1.88,14.65l-11.77,8.88h-16l17.5-13.2l-2.76-21.47L116.09,122.05z M106.13,153.11l11.69,9.03
	l-2.05,14.6l-11.31,11.31l3.04-21.71l-17.13-13.23H106.13z M121.05,182.11l14.65-1.88l8.88,11.77v16l-13.2-17.5l-21.47,2.76
	L121.05,182.11z M152.11,192.06l9.03-11.69l14.6,2.05l11.31,11.31l-21.71-3.04l-13.23,17.13V192.06z M181.11,177.14l-1.88-14.65
	l11.77-8.88h16l-17.5,13.2l2.76,21.47L181.11,177.14z M191.06,146.08l-11.69-9.03l2.05-14.6l11.31-11.31l-3.04,21.71l17.13,13.23
	H191.06z M192.09,101.13l-24.42,3.14l-15.07-19.98v-9.4l17.61,23.35l28.43-3.65L192.09,101.13z M145.08,84.57l-15.05,19.49
	l-24.78-3.47l-6.65-6.65l28.96,4.06l17.52-22.68V84.57z M100.13,106.1l3.14,24.42l-19.98,15.07h-9.4l23.35-17.61l-3.65-28.43
	L100.13,106.1z M83.57,153.11l19.49,15.05l-3.47,24.78l-6.65,6.65l4.06-28.96l-22.68-17.52H83.57z M105.1,198.06l24.42-3.14
	l15.07,19.98v9.4l-17.61-23.35l-28.43,3.65L105.1,198.06z M152.11,214.62l15.05-19.49l24.78,3.47l6.65,6.65l-28.32-3.97l-0.64-0.09
	l-17.52,22.68V214.62z M197.06,193.09l-3.14-24.42l19.98-15.07h9.4l-23.35,17.61l3.65,28.43L197.06,193.09z M173.07,91.45
	l32.94-4.23l-4.79,4.79l-30,3.86l-18.6-24.67v-6.88L173.07,91.45z M124.79,91.17l20.3-26.28v6.78L126.6,95.61L96,91.32l-4.86-4.86
	L124.79,91.17z M90.45,125.12l-4.23-32.94l4.79,4.79l3.86,30l-24.67,18.6h-6.88L90.45,125.12z M90.17,173.4l-26.28-20.3h6.78
	l23.94,18.49l-4.29,30.6l-4.86,4.86L90.17,173.4z M124.12,207.74l-32.94,4.23l4.79-4.79l30-3.86l18.6,24.67v6.88L124.12,207.74z
	 M172.4,208.02l-20.3,26.28v-6.78l18.49-23.94l30.6,4.29l4.86,4.86L172.4,208.02z M206.74,174.07l4.23,32.94l-4.79-4.79l-3.86-30
	l24.67-18.6h6.88L206.74,174.07z"/>
</svg>
